<?xml version="1.0" encoding="UTF-8"?>
<svg xmlns="http://www.w3.org/2000/svg" xmlns:xlink="http://www.w3.org/1999/xlink" viewBox="0 0 48 48" width="48px" height="48px">
<g id="surface28863091">
<path style=" stroke:none;fill-rule:nonzero;fill:rgb(74.901962%,21.176471%,4.705882%);fill-opacity:1;" d="M 16 15 L 32 15 L 32 33 L 16 33 Z M 16 15 "/>
<path style=" stroke:none;fill-rule:nonzero;fill:rgb(74.901962%,21.176471%,4.705882%);fill-opacity:1;" d="M 16 15 L 32 15 L 32 33 L 16 33 Z M 16 15 "/>
<path style=" stroke:none;fill-rule:nonzero;fill:rgb(67.450982%,49.803922%,0.392157%);fill-opacity:1;" d="M 16 15 L 32 15 L 32 33 L 16 33 Z M 16 15 "/>
<path style=" stroke:none;fill-rule:nonzero;fill:rgb(97.254902%,68.235296%,23.921569%);fill-opacity:1;" d="M 24 37 C 21.808594 37 19 31 19 31 L 19 25 L 29 25 L 29 31 C 29 31 26.191406 37 24 37 "/>
<path style=" stroke:none;fill-rule:nonzero;fill:rgb(99.215686%,74.509805%,38.82353%);fill-opacity:1;" d="M 33 14 C 33 6.363281 15 9.027344 15 14 L 15 21 C 15 25.972656 19.027344 30 24 30 C 28.972656 30 33 25.972656 33 21 Z M 33 14 "/>
<path style=" stroke:none;fill-rule:nonzero;fill:rgb(91.37255%,69.01961%,0%);fill-opacity:1;" d="M 24 4 C 17.925781 4 9 7.402344 9 27.285156 L 16 32 L 16 19 L 28 12 L 32 17 L 32 32 L 39 26 C 39 21.976562 38.324219 6 28 6 L 27 4 Z M 24 4 "/>
<path style=" stroke:none;fill-rule:nonzero;fill:rgb(99.215686%,74.509805%,38.82353%);fill-opacity:1;" d="M 24 38 C 19.578125 38 19 31 19 31 C 19 31 21.507812 35 24 35 C 26.492188 35 29 31 29 31 C 29 31 28.421875 38 24 38 "/>
<path style=" stroke:none;fill-rule:nonzero;fill:rgb(47.058824%,27.843139%,9.803922%);fill-opacity:1;" d="M 27 21 C 27 21.550781 27.449219 22 28 22 C 28.550781 22 29 21.550781 29 21 C 29 20.449219 28.550781 20 28 20 C 27.449219 20 27 20.449219 27 21 M 19 21 C 19 21.550781 19.449219 22 20 22 C 20.550781 22 21 21.550781 21 21 C 21 20.449219 20.550781 20 20 20 C 19.449219 20 19 20.449219 19 21 "/>
<path style=" stroke:none;fill-rule:nonzero;fill:rgb(97.254902%,68.235296%,23.921569%);fill-opacity:1;" d="M 24 37 C 21.808594 37 19 31 19 31 L 19 25 L 29 25 L 29 31 C 29 31 26.191406 37 24 37 "/>
<path style=" stroke:none;fill-rule:nonzero;fill:rgb(99.215686%,74.509805%,38.82353%);fill-opacity:1;" d="M 33 14 C 33 6.363281 15 9.027344 15 14 L 15 21 C 15 25.972656 19.027344 30 24 30 C 28.972656 30 33 25.972656 33 21 Z M 33 14 "/>
<path style=" stroke:none;fill-rule:nonzero;fill:rgb(91.37255%,69.01961%,0%);fill-opacity:1;" d="M 24 4 C 17.925781 4 9 7.402344 9 27.285156 L 16 32 L 16 19 L 28 12 L 32 17 L 32 32 L 39 26 C 39 21.976562 38.324219 6 28 6 L 27 4 Z M 24 4 "/>
<path style=" stroke:none;fill-rule:nonzero;fill:rgb(99.215686%,74.509805%,38.82353%);fill-opacity:1;" d="M 24 38 C 19.578125 38 19 31 19 31 C 19 31 21.507812 35 24 35 C 26.492188 35 29 31 29 31 C 29 31 28.421875 38 24 38 "/>
<path style=" stroke:none;fill-rule:nonzero;fill:rgb(47.058824%,27.843139%,9.803922%);fill-opacity:1;" d="M 27 21 C 27 21.550781 27.449219 22 28 22 C 28.550781 22 29 21.550781 29 21 C 29 20.449219 28.550781 20 28 20 C 27.449219 20 27 20.449219 27 21 M 19 21 C 19 21.550781 19.449219 22 20 22 C 20.550781 22 21 21.550781 21 21 C 21 20.449219 20.550781 20 20 20 C 19.449219 20 19 20.449219 19 21 "/>
<path style=" stroke:none;fill-rule:nonzero;fill:rgb(96.862745%,30.980393%,83.137256%);fill-opacity:1;" d="M 29 31 C 29 31 28 35 24 35 C 20 35 19 31 19 31 C 19 31 8 32.984375 8 44 L 40 44 C 40 33.023438 29 31 29 31 "/>
<path style=" stroke:none;fill-rule:nonzero;fill:rgb(97.254902%,68.235296%,23.921569%);fill-opacity:1;" d="M 24 37 C 21.808594 37 19 31 19 31 L 19 25 L 29 25 L 29 31 C 29 31 26.191406 37 24 37 "/>
<path style=" stroke:none;fill-rule:nonzero;fill:rgb(99.215686%,74.509805%,38.82353%);fill-opacity:1;" d="M 33 14 C 33 6.363281 15 9.027344 15 14 L 15 21 C 15 25.972656 19.027344 30 24 30 C 28.972656 30 33 25.972656 33 21 Z M 33 14 "/>
<path style=" stroke:none;fill-rule:nonzero;fill:rgb(91.37255%,69.01961%,0%);fill-opacity:1;" d="M 24 4 C 17.925781 4 9 7.402344 9 27.285156 L 16 32 L 16 19 L 28 12 L 32 17 L 32 32 L 39 26 C 39 21.976562 38.324219 6 28 6 L 27 4 Z M 24 4 "/>
<path style=" stroke:none;fill-rule:nonzero;fill:rgb(99.215686%,74.509805%,38.82353%);fill-opacity:1;" d="M 24 38 C 19.578125 38 19 31 19 31 C 19 31 21.507812 35 24 35 C 26.492188 35 29 31 29 31 C 29 31 28.421875 38 24 38 "/>
<path style=" stroke:none;fill-rule:nonzero;fill:rgb(58.039218%,0.392157%,60.784316%);fill-opacity:1;" d="M 24 40 C 28.746094 40 30.570312 34.886719 30.949219 31.570312 C 29.792969 31.148438 29 31 29 31 C 29 31 28.421875 38 24 38 C 19.578125 38 19 31 19 31 C 19 31 18.207031 31.144531 17.050781 31.566406 C 17.425781 34.878906 19.25 40 24 40 Z M 24 40 "/>
<path style=" stroke:none;fill-rule:nonzero;fill:rgb(47.058824%,27.843139%,9.803922%);fill-opacity:1;" d="M 27 21 C 27 20.449219 27.449219 20 28 20 C 28.550781 20 29 20.449219 29 21 C 29 21.550781 28.550781 22 28 22 C 27.449219 22 27 21.550781 27 21 M 19 21 C 19 21.550781 19.449219 22 20 22 C 20.550781 22 21 21.550781 21 21 C 21 20.449219 20.550781 20 20 20 C 19.449219 20 19 20.449219 19 21 "/>
<path style=" stroke:none;fill-rule:nonzero;fill:rgb(46,204,113);fill-opacity:1;" d="M 48 38 C 48 43.5 43.5 48 38 48 C 32.5 48 28 43.5 28 38 C 28 32.5 32.5 28 38 28 C 43.5 28 48 32.5 48 38 "/>
<path style=" stroke:none;fill-rule:nonzero;fill:rgb(100%,100%,100%);fill-opacity:1;" d="M 41.5 43 L 34.699219 43 L 34.699219 41.5 L 37.800781 38.199219 C 38.601562 37.300781 39 36.601562 39 36.101562 C 39 35.699219 38.898438 35.398438 38.699219 35.101562 C 38.5 34.898438 38.300781 34.800781 37.898438 34.800781 C 37.601562 34.800781 37.300781 34.898438 37.101562 35.199219 C 36.898438 35.5 36.800781 35.898438 36.800781 36.300781 L 34.5 36.300781 C 34.5 35.699219 34.601562 35.101562 34.898438 34.601562 C 35.199219 34.101562 35.601562 33.699219 36.101562 33.398438 C 36.699219 33.101562 37.300781 33 38 33 C 39.101562 33 39.898438 33.199219 40.398438 33.699219 C 41 34.199219 41.300781 34.898438 41.300781 35.800781 C 41.300781 36.199219 41.199219 36.601562 41.101562 36.898438 C 41 37.300781 40.699219 37.699219 40.398438 38.101562 C 40.101562 38.5 39.601562 39 38.898438 39.699219 L 37.601562 41.199219 L 41.398438 41.199219 L 41.398438 43 Z M 41.5 43 "/>
</g>
</svg>
