<?xml version="1.0" encoding="UTF-8"?>
<svg xmlns="http://www.w3.org/2000/svg" xmlns:xlink="http://www.w3.org/1999/xlink" viewBox="0 0 48 48" width="48px" height="48px">
<g id="surface28944137">
<path style=" stroke:none;fill-rule:nonzero;fill:rgb(30.980393%,35.294119%,96.862745%);fill-opacity:1;" d="M 29 31 C 29 31 28 35 24 35 C 20 35 19 31 19 31 C 19 31 8 32.984375 8 44 L 40 44 C 40 33.023438 29 31 29 31 "/>
<path style=" stroke:none;fill-rule:nonzero;fill:rgb(98.823529%,71.372551%,32.549021%);fill-opacity:1;" d="M 24 37 C 19 37 19 31 19 31 L 19 25 L 29 25 L 29 31 C 29 31 29 37 24 37 Z M 24 37 "/>
<path style=" stroke:none;fill-rule:nonzero;fill:rgb(97.254902%,68.627453%,27.058825%);fill-opacity:1;" d="M 35 19 C 35 20.105469 34.105469 21 33 21 C 31.894531 21 31 20.105469 31 19 C 31 17.894531 31.894531 17 33 17 C 34.105469 17 35 17.894531 35 19 M 17 19 C 17 17.894531 16.105469 17 15 17 C 13.894531 17 13 17.894531 13 19 C 13 20.105469 13.894531 21 15 21 C 16.105469 21 17 20.105469 17 19 "/>
<path style=" stroke:none;fill-rule:nonzero;fill:rgb(100%,80.000001%,50.196081%);fill-opacity:1;" d="M 33 13 C 33 5.363281 15 8.027344 15 13 L 15 20 C 15 24.972656 19.027344 29 24 29 C 28.972656 29 33 24.972656 33 20 Z M 33 13 "/>
<path style=" stroke:none;fill-rule:nonzero;fill:rgb(89.019608%,75.686276%,23.921569%);fill-opacity:1;" d="M 24 4 C 17.925781 4 14 8.925781 14 15 L 14 17.285156 L 16 19 L 16 14 L 28 10 L 32 14 L 32 19 L 34 17.257812 L 34 15 C 34 10.976562 32.960938 6.984375 28 6 L 27 4 Z M 24 4 "/>
<path style=" stroke:none;fill-rule:nonzero;fill:rgb(47.058824%,27.843139%,9.803922%);fill-opacity:1;" d="M 27 19 C 27 18.449219 27.449219 18 28 18 C 28.550781 18 29 18.449219 29 19 C 29 19.550781 28.550781 20 28 20 C 27.449219 20 27 19.550781 27 19 M 19 19 C 19 19.550781 19.449219 20 20 20 C 20.550781 20 21 19.550781 21 19 C 21 18.449219 20.550781 18 20 18 C 19.449219 18 19 18.449219 19 19 "/>
<path style=" stroke:none;fill-rule:nonzero;fill:rgb(0.392157%,9.411765%,60.784316%);fill-opacity:1;" d="M 24 37 C 29 37 30.746094 33.070312 30.949219 31.570312 C 29.792969 31.148438 29 31 29 31 C 29 31 28 35 24 35 C 20 35 19 31 19 31 C 19 31 18.203125 31.144531 17.046875 31.566406 C 17.253906 33.0625 19 37 24 37 Z M 24 37 "/>
<path style=" stroke:none;fill-rule:nonzero;fill:rgb(46,204,113);fill-opacity:1;" d="M 48 38 C 48 43.5 43.5 48 38 48 C 32.5 48 28 43.5 28 38 C 28 32.5 32.5 28 38 28 C 43.5 28 48 32.5 48 38 "/>
<path style=" stroke:none;fill-rule:nonzero;fill:rgb(100%,100%,100%);fill-opacity:1;" d="M 41.5 43 L 34.699219 43 L 34.699219 41.5 L 37.800781 38.199219 C 38.601562 37.300781 39 36.601562 39 36.101562 C 39 35.699219 38.898438 35.398438 38.699219 35.101562 C 38.5 34.898438 38.300781 34.800781 37.898438 34.800781 C 37.601562 34.800781 37.300781 34.898438 37.101562 35.199219 C 36.898438 35.5 36.800781 35.898438 36.800781 36.300781 L 34.5 36.300781 C 34.5 35.699219 34.601562 35.101562 34.898438 34.601562 C 35.199219 34.101562 35.601562 33.699219 36.101562 33.398438 C 36.699219 33.101562 37.300781 33 38 33 C 39.101562 33 39.898438 33.199219 40.398438 33.699219 C 41 34.199219 41.300781 34.898438 41.300781 35.800781 C 41.300781 36.199219 41.199219 36.601562 41.101562 36.898438 C 41 37.300781 40.699219 37.699219 40.398438 38.101562 C 40.101562 38.5 39.601562 39 38.898438 39.699219 L 37.601562 41.199219 L 41.398438 41.199219 L 41.398438 43 Z M 41.5 43 "/>
</g>
</svg>
