<svg width="122" height="96" viewBox="0 0 122 96" fill="none" xmlns="http://www.w3.org/2000/svg">
<path d="M38.032 34.92V43.32H49.312V48.648H38.032V57.528H50.752V63H31.312V29.448H50.752V34.92H38.032ZM72.7469 29.496V34.92H58.7789V43.512H69.4829V48.84H58.7789V63H52.0589V29.496H72.7469Z" fill="#25AAC7"/>
<path d="M20.8 61.296L5.376 46.576L20.8 31.92H28.16L12.672 46.576L28.16 61.296H20.8Z" fill="#282828"/>
<path d="M90.688 9.712L73.152 80.88H67.392L84.864 9.712H90.688ZM90.8535 31.92H98.2135L113.702 46.576L98.2135 61.296H90.8535L106.342 46.576L90.8535 31.92Z" fill="#282828"/>
</svg>
